<svg width="27" height="23" viewBox="0 0 27 23" fill="none" xmlns="http://www.w3.org/2000/svg">
<path d="M24.5 0H2.5C1.83696 0 1.20107 0.263392 0.732233 0.732233C0.263392 1.20107 0 1.83696 0 2.5V20.5C0 21.163 0.263392 21.7989 0.732233 22.2678C1.20107 22.7366 1.83696 23 2.5 23H24.5C25.163 23 25.7989 22.7366 26.2678 22.2678C26.7366 21.7989 27 21.163 27 20.5V2.5C27 1.83696 26.7366 1.20107 26.2678 0.732233C25.7989 0.263392 25.163 0 24.5 0ZM24 20H3V3H24V20ZM6 7C6 6.60218 6.15804 6.22064 6.43934 5.93934C6.72064 5.65804 7.10218 5.5 7.5 5.5H19.5C19.8978 5.5 20.2794 5.65804 20.5607 5.93934C20.842 6.22064 21 6.60218 21 7C21 7.39782 20.842 7.77936 20.5607 8.06066C20.2794 8.34196 19.8978 8.5 19.5 8.5H7.5C7.10218 8.5 6.72064 8.34196 6.43934 8.06066C6.15804 7.77936 6 7.39782 6 7ZM6 11.5C6 11.1022 6.15804 10.7206 6.43934 10.4393C6.72064 10.158 7.10218 10 7.5 10H19.5C19.8978 10 20.2794 10.158 20.5607 10.4393C20.842 10.7206 21 11.1022 21 11.5C21 11.8978 20.842 12.2794 20.5607 12.5607C20.2794 12.842 19.8978 13 19.5 13H7.5C7.10218 13 6.72064 12.842 6.43934 12.5607C6.15804 12.2794 6 11.8978 6 11.5ZM6 16C6 15.6022 6.15804 15.2206 6.43934 14.9393C6.72064 14.658 7.10218 14.5 7.5 14.5H19.5C19.8978 14.5 20.2794 14.658 20.5607 14.9393C20.842 15.2206 21 15.6022 21 16C21 16.3978 20.842 16.7794 20.5607 17.0607C20.2794 17.342 19.8978 17.5 19.5 17.5H7.5C7.10218 17.5 6.72064 17.342 6.43934 17.0607C6.15804 16.7794 6 16.3978 6 16Z" fill="#506554"/>
</svg>
