<svg width="27" height="27" viewBox="0 0 27 27" fill="none" xmlns="http://www.w3.org/2000/svg">
<path d="M13.5 0C10.83 0 8.21987 0.791761 5.99981 2.27516C3.77974 3.75856 2.04941 5.86697 1.02763 8.33377C0.00584931 10.8006 -0.261496 13.515 0.259405 16.1337C0.780305 18.7525 2.06606 21.1579 3.95406 23.0459C5.84207 24.9339 8.24754 26.2197 10.8663 26.7406C13.485 27.2615 16.1994 26.9942 18.6662 25.9724C21.133 24.9506 23.2414 23.2203 24.7248 21.0002C26.2082 18.7801 27 16.17 27 13.5C26.996 9.92079 25.5724 6.48932 23.0416 3.95844C20.5107 1.42756 17.0792 0.00397028 13.5 0ZM13.5 24C11.4233 24 9.39323 23.3842 7.66652 22.2304C5.9398 21.0767 4.59399 19.4368 3.79927 17.5182C3.00455 15.5995 2.79662 13.4883 3.20176 11.4515C3.6069 9.41475 4.60693 7.54383 6.07538 6.07538C7.54383 4.60693 9.41475 3.6069 11.4516 3.20175C13.4884 2.79661 15.5996 3.00454 17.5182 3.79926C19.4368 4.59398 21.0767 5.9398 22.2304 7.66651C23.3842 9.39323 24 11.4233 24 13.5C23.997 16.2839 22.8898 18.9528 20.9213 20.9213C18.9528 22.8898 16.2839 23.997 13.5 24ZM13.5 5.5C11.9178 5.5 10.371 5.96919 9.05544 6.84824C7.73985 7.72729 6.71447 8.97672 6.10897 10.4385C5.50347 11.9003 5.34504 13.5089 5.65372 15.0607C5.9624 16.6126 6.72433 18.038 7.84315 19.1569C8.96197 20.2757 10.3874 21.0376 11.9393 21.3463C13.4911 21.655 15.0997 21.4965 16.5615 20.891C18.0233 20.2855 19.2727 19.2601 20.1518 17.9446C21.0308 16.629 21.5 15.0822 21.5 13.5C21.4977 11.379 20.6541 9.34549 19.1543 7.8457C17.6545 6.34591 15.621 5.50232 13.5 5.5ZM13.5 18.5C12.5111 18.5 11.5444 18.2068 10.7222 17.6573C9.89991 17.1079 9.25904 16.327 8.88061 15.4134C8.50217 14.4998 8.40315 13.4945 8.59608 12.5245C8.789 11.5546 9.26521 10.6637 9.96447 9.96446C10.6637 9.2652 11.5546 8.789 12.5246 8.59607C13.4945 8.40315 14.4998 8.50216 15.4134 8.8806C16.3271 9.25904 17.1079 9.8999 17.6574 10.7221C18.2068 11.5444 18.5 12.5111 18.5 13.5C18.5 14.8261 17.9732 16.0978 17.0355 17.0355C16.0979 17.9732 14.8261 18.5 13.5 18.5Z" fill="#506554"/>
</svg>
