<svg width="25" height="21" viewBox="0 0 25 21" fill="none" xmlns="http://www.w3.org/2000/svg">
<path d="M22.5 11.5H2.5C1.83696 11.5 1.20107 11.7634 0.732233 12.2322C0.263392 12.7011 0 13.337 0 14V18.5C0 19.163 0.263392 19.7989 0.732233 20.2678C1.20107 20.7366 1.83696 21 2.5 21H22.5C23.163 21 23.7989 20.7366 24.2678 20.2678C24.7366 19.7989 25 19.163 25 18.5V14C25 13.337 24.7366 12.7011 24.2678 12.2322C23.7989 11.7634 23.163 11.5 22.5 11.5ZM22 18H3V14.5H22V18ZM22.5 0H2.5C1.83696 0 1.20107 0.263392 0.732233 0.732233C0.263392 1.20107 0 1.83696 0 2.5V7C0 7.66304 0.263392 8.29893 0.732233 8.76777C1.20107 9.23661 1.83696 9.5 2.5 9.5H22.5C23.163 9.5 23.7989 9.23661 24.2678 8.76777C24.7366 8.29893 25 7.66304 25 7V2.5C25 1.83696 24.7366 1.20107 24.2678 0.732233C23.7989 0.263392 23.163 0 22.5 0ZM22 6.5H3V3H22V6.5Z" fill="#506554"/>
</svg>
