<svg width="28" height="25" viewBox="0 0 28 25" fill="none" xmlns="http://www.w3.org/2000/svg">
<path d="M22.6157 14.1304C22.6157 14.5604 22.4894 14.9807 22.2528 15.3382C22.0161 15.6957 21.6797 15.9743 21.2862 16.1389C20.8927 16.3034 20.4596 16.3465 20.0419 16.2626C19.6241 16.1787 19.2403 15.9716 18.9391 15.6676C18.6379 15.3636 18.4328 14.9762 18.3497 14.5545C18.2666 14.1328 18.3092 13.6957 18.4722 13.2985C18.6353 12.9013 18.9113 12.5618 19.2655 12.3229C19.6197 12.084 20.0361 11.9565 20.462 11.9565C21.0332 11.9565 21.581 12.1856 21.9849 12.5932C22.3888 13.0009 22.6157 13.5539 22.6157 14.1304ZM28 9.78261V20.6522C28 21.8053 27.5462 22.9112 26.7384 23.7265C25.9306 24.5419 24.835 25 23.6926 25H4.3092C3.1668 25 2.07119 24.5419 1.26339 23.7265C0.455596 22.9112 0.00178066 21.8053 0.00178066 20.6522V4.47283C-0.014786 3.89143 0.0843858 3.31259 0.293424 2.77057C0.502463 2.22856 0.817118 1.73439 1.21876 1.31732C1.6204 0.900255 2.10087 0.568772 2.63171 0.342498C3.16255 0.116224 3.73297 -0.000240059 4.3092 3.71503e-07H22.0773C22.5057 3.71503e-07 22.9166 0.171778 23.2195 0.477543C23.5224 0.783309 23.6926 1.19802 23.6926 1.63044C23.6926 2.06285 23.5224 2.47756 23.2195 2.78333C22.9166 3.08909 22.5057 3.26087 22.0773 3.26087H4.3092C4.16479 3.26079 4.02184 3.29003 3.88886 3.34685C3.75587 3.40368 3.63557 3.48691 3.5351 3.59162C3.43464 3.69632 3.35606 3.82036 3.30405 3.95634C3.25204 4.09232 3.22765 4.23747 3.23234 4.38315V4.39402C3.25496 4.68182 3.38581 4.94998 3.59806 5.1435C3.81031 5.33702 4.08786 5.44124 4.37381 5.43478H23.6926C24.835 5.43478 25.9306 5.89286 26.7384 6.70823C27.5462 7.52361 28 8.62949 28 9.78261ZM24.7694 9.78261C24.7694 9.49433 24.656 9.21786 24.454 9.01401C24.2521 8.81017 23.9782 8.69565 23.6926 8.69565H4.37381C3.9887 8.69582 3.60513 8.64651 3.23234 8.54891V20.6522C3.23234 20.9405 3.3458 21.2169 3.54775 21.4208C3.7497 21.6246 4.0236 21.7391 4.3092 21.7391H23.6926C23.9782 21.7391 24.2521 21.6246 24.454 21.4208C24.656 21.2169 24.7694 20.9405 24.7694 20.6522V9.78261Z" fill="#506554"/>
</svg>
