<svg width="34" height="34" viewBox="0 0 34 34" fill="none" xmlns="http://www.w3.org/2000/svg">
<path d="M31.7651 12.9039C31.2492 12.366 30.7172 11.8106 30.5428 11.39C30.3875 11.0148 30.3758 10.2425 30.3655 9.5625C30.3435 8.09698 30.3157 6.27388 29.0202 4.97983C27.7247 3.68578 25.903 3.66086 24.4375 3.63448C23.7575 3.62422 22.9852 3.6125 22.61 3.45716C22.1894 3.28276 21.634 2.75078 21.0961 2.23491C20.0585 1.23983 18.7659 0 17 0C15.2341 0 13.9415 1.23983 12.9039 2.23491C12.366 2.75078 11.8106 3.28276 11.39 3.45716C11.0148 3.6125 10.2425 3.62422 9.5625 3.63448C8.09698 3.66379 6.27388 3.68431 4.98276 4.98276C3.69164 6.28121 3.66379 8.09698 3.63448 9.5625C3.62422 10.2425 3.6125 11.0148 3.45716 11.39C3.28276 11.8106 2.75078 12.366 2.23491 12.9039C1.23983 13.9415 0 15.2414 0 17C0 18.7586 1.23983 20.0585 2.23491 21.1034C2.75078 21.6413 3.28276 22.1967 3.45716 22.6173C3.6125 22.9925 3.62422 23.7648 3.63448 24.4448C3.65647 25.9103 3.68431 27.7335 4.97983 29.0275C6.27534 30.3216 8.09698 30.3465 9.5625 30.3728C10.2425 30.3831 11.0148 30.3948 11.39 30.5502C11.8106 30.7246 12.366 31.2566 12.9039 31.7724C13.9415 32.7602 15.2414 34 17 34C18.7586 34 20.0585 32.7602 21.0961 31.7651C21.634 31.2492 22.1894 30.7172 22.61 30.5428C22.9852 30.3875 23.7575 30.3758 24.4375 30.3655C25.903 30.3435 27.7261 30.3157 29.0202 29.0202C30.3142 27.7247 30.3391 25.903 30.3655 24.4375C30.3758 23.7575 30.3875 22.9852 30.5428 22.61C30.7172 22.1894 31.2492 21.634 31.7651 21.0961C32.7602 20.0585 34 18.7659 34 17C34 15.2341 32.7602 13.9415 31.7651 12.9039ZM29.2268 18.6619C28.5204 19.3947 27.7203 20.2329 27.2923 21.2647C26.8805 22.2612 26.8644 23.3398 26.8527 24.3847C26.8409 25.1703 26.8248 26.2474 26.5376 26.5332C26.2503 26.819 25.1747 26.8366 24.3891 26.8483C23.3442 26.8644 22.2656 26.8805 21.2691 27.2879C20.2432 27.7144 19.402 28.5146 18.6663 29.2209C18.1402 29.7266 17.3517 30.4828 17 30.4828C16.6483 30.4828 15.8598 29.7266 15.3381 29.2268C14.6053 28.5204 13.7671 27.7203 12.7353 27.2923C11.7388 26.8805 10.6602 26.8644 9.61526 26.8527C8.82974 26.8409 7.75259 26.8248 7.46681 26.5376C7.18103 26.2503 7.16345 25.1747 7.15172 24.3891C7.1356 23.3442 7.11948 22.2656 6.71207 21.2691C6.28414 20.2432 5.48397 19.4034 4.77759 18.6663C4.27345 18.1402 3.51724 17.3517 3.51724 17C3.51724 16.6483 4.27345 15.8598 4.77319 15.3381C5.47957 14.6053 6.27974 13.7671 6.70767 12.7353C7.11948 11.7388 7.1356 10.6602 7.14733 9.61526C7.16345 8.82974 7.18103 7.75259 7.47414 7.47414C7.76724 7.19569 8.83707 7.17078 9.62259 7.15905C10.6675 7.14293 11.7461 7.12681 12.7427 6.7194C13.7685 6.29293 14.6097 5.49276 15.3454 4.78638C15.8598 4.27345 16.6483 3.51724 17 3.51724C17.3517 3.51724 18.1402 4.27345 18.6619 4.77319C19.3947 5.47957 20.2329 6.27974 21.2647 6.70767C22.2612 7.11948 23.3398 7.1356 24.3847 7.14733C25.1703 7.15905 26.2474 7.17517 26.5332 7.46241C26.819 7.74965 26.8366 8.82534 26.8483 9.61086C26.8644 10.6558 26.8805 11.7344 27.2879 12.7309C27.7159 13.7568 28.516 14.5966 29.2224 15.3337C29.7222 15.8554 30.4784 16.6439 30.4784 16.9956C30.4784 17.3473 29.7266 18.1402 29.2268 18.6619Z" fill="#506554"/>
</svg>
